<svg width="32" height="21" viewBox="0 0 32 21" fill="none" xmlns="http://www.w3.org/2000/svg">
<ellipse cx="16" cy="10.5" rx="16" ry="10.5" fill="#EF9A9A" fill-opacity="0.85"/>
<path d="M7.79528 14.1321C7.3805 14.1321 7.00692 14.0582 6.67454 13.9105C6.34499 13.7599 6.08363 13.5384 5.89045 13.2457C5.70011 12.9531 5.60494 12.5923 5.60494 12.1634C5.60494 11.794 5.67312 11.4886 5.80948 11.2472C5.94585 11.0057 6.13192 10.8125 6.36772 10.6676C6.60352 10.5227 6.86914 10.4134 7.1646 10.3395C7.46289 10.2628 7.77113 10.2074 8.08931 10.1733C8.47283 10.1335 8.78391 10.098 9.02255 10.0668C9.26119 10.0327 9.43448 9.98153 9.54244 9.91335C9.65323 9.84233 9.70863 9.73295 9.70863 9.58523V9.55966C9.70863 9.23864 9.61346 8.99006 9.42312 8.81392C9.23278 8.63778 8.95863 8.54972 8.60067 8.54972C8.22283 8.54972 7.92312 8.6321 7.70153 8.79688C7.48278 8.96165 7.33505 9.15625 7.25835 9.38068L5.818 9.17614C5.93164 8.77841 6.11914 8.44602 6.3805 8.17898C6.64187 7.90909 6.96147 7.70739 7.33931 7.57386C7.71715 7.4375 8.13477 7.36932 8.59215 7.36932C8.90749 7.36932 9.22141 7.40625 9.53391 7.48011C9.84641 7.55398 10.1319 7.67614 10.3904 7.84659C10.649 8.0142 10.8564 8.2429 11.0126 8.53267C11.1717 8.82244 11.2512 9.18466 11.2512 9.61932V14H9.76829V13.1009H9.71715C9.6234 13.2827 9.4913 13.4531 9.32085 13.6122C9.15323 13.7685 8.94158 13.8949 8.6859 13.9915C8.43306 14.0852 8.13619 14.1321 7.79528 14.1321ZM8.19585 12.9986C8.5055 12.9986 8.77397 12.9375 9.00124 12.8153C9.22852 12.6903 9.40323 12.5256 9.52539 12.321C9.65039 12.1165 9.71289 11.8935 9.71289 11.652V10.8807C9.6646 10.9205 9.58221 10.9574 9.46573 10.9915C9.3521 11.0256 9.22425 11.0554 9.08221 11.081C8.94016 11.1065 8.79954 11.1293 8.66033 11.1491C8.52113 11.169 8.40039 11.1861 8.29812 11.2003C8.068 11.2315 7.86204 11.2827 7.68022 11.3537C7.4984 11.4247 7.35494 11.5241 7.24982 11.652C7.14471 11.777 7.09215 11.9389 7.09215 12.1378C7.09215 12.4219 7.19585 12.6364 7.40323 12.7812C7.61062 12.9261 7.87482 12.9986 8.19585 12.9986ZM14.345 10.1648V14H12.8024V7.45455H14.2768V8.56676H14.3535C14.5041 8.20028 14.7441 7.90909 15.0737 7.69318C15.4061 7.47727 15.8166 7.36932 16.3052 7.36932C16.7569 7.36932 17.1504 7.46591 17.4856 7.65909C17.8237 7.85227 18.085 8.1321 18.2697 8.49858C18.4572 8.86506 18.5495 9.30966 18.5467 9.83239V14H17.0041V10.071C17.0041 9.63352 16.8904 9.29119 16.6632 9.04403C16.4387 8.79687 16.1277 8.6733 15.7299 8.6733C15.46 8.6733 15.22 8.73295 15.0098 8.85227C14.8024 8.96875 14.639 9.13778 14.5197 9.35938C14.4032 9.58097 14.345 9.84943 14.345 10.1648ZM22.5439 14.1151C22.0297 14.1151 21.5694 13.983 21.1632 13.7188C20.7569 13.4545 20.4359 13.071 20.2001 12.5682C19.9643 12.0653 19.8464 11.4545 19.8464 10.7358C19.8464 10.0085 19.9657 9.39489 20.2044 8.89489C20.4458 8.39205 20.7711 8.01278 21.1802 7.7571C21.5893 7.49858 22.0453 7.36932 22.5481 7.36932C22.9316 7.36932 23.247 7.43466 23.4941 7.56534C23.7413 7.69318 23.9373 7.84801 24.0822 8.02983C24.2271 8.20881 24.3393 8.37784 24.4189 8.53693H24.4828V5.27273H26.0297V14H24.5126V12.9688H24.4189C24.3393 13.1278 24.2243 13.2969 24.0737 13.4759C23.9231 13.652 23.7243 13.8026 23.4771 13.9276C23.2299 14.0526 22.9189 14.1151 22.5439 14.1151ZM22.9743 12.8494C23.301 12.8494 23.5794 12.7614 23.8095 12.5852C24.0396 12.4062 24.2143 12.1577 24.3336 11.8395C24.4529 11.5213 24.5126 11.1506 24.5126 10.7273C24.5126 10.304 24.4529 9.93608 24.3336 9.62358C24.2172 9.31108 24.0439 9.06818 23.8137 8.89489C23.5865 8.72159 23.3066 8.63494 22.9743 8.63494C22.6305 8.63494 22.3436 8.72443 22.1135 8.90341C21.8833 9.08239 21.71 9.32955 21.5936 9.64489C21.4771 9.96023 21.4189 10.321 21.4189 10.7273C21.4189 11.1364 21.4771 11.5014 21.5936 11.8224C21.7129 12.1406 21.8876 12.392 22.1177 12.5767C22.3507 12.7585 22.6362 12.8494 22.9743 12.8494Z" fill="black"/>
</svg>
