<svg width="47" height="16" viewBox="0 0 47 16" fill="none" xmlns="http://www.w3.org/2000/svg">
<rect width="47" height="16" rx="5" fill="#A2A0D1" fill-opacity="0.7"/>
<path d="M10.2179 7.18466L8.81161 7.33807C8.77184 7.19602 8.70224 7.0625 8.60281 6.9375C8.50621 6.8125 8.37553 6.71165 8.21076 6.63494C8.04599 6.55824 7.84428 6.51989 7.60565 6.51989C7.28462 6.51989 7.01474 6.58949 6.79599 6.72869C6.58008 6.8679 6.47354 7.0483 6.47639 7.26989C6.47354 7.46023 6.54315 7.61506 6.68519 7.73438C6.83008 7.85369 7.06871 7.9517 7.4011 8.02841L8.51758 8.26705C9.1369 8.40057 9.59712 8.61222 9.89826 8.90199C10.2022 9.19176 10.3556 9.57102 10.3585 10.0398C10.3556 10.4517 10.2349 10.8153 9.99627 11.1307C9.76048 11.4432 9.43235 11.6875 9.0119 11.8636C8.59144 12.0398 8.10849 12.1278 7.56303 12.1278C6.7619 12.1278 6.11701 11.9602 5.62837 11.625C5.13974 11.2869 4.84854 10.8168 4.75479 10.2145L6.25906 10.0696C6.32724 10.3651 6.47212 10.5881 6.69371 10.7386C6.91531 10.8892 7.20366 10.9645 7.55877 10.9645C7.92525 10.9645 8.21928 10.8892 8.44087 10.7386C8.66531 10.5881 8.77752 10.402 8.77752 10.1804C8.77752 9.9929 8.70508 9.83807 8.56019 9.71591C8.41815 9.59375 8.19656 9.5 7.89542 9.43466L6.77894 9.20028C6.1511 9.0696 5.68661 8.84943 5.38548 8.53977C5.08434 8.22727 4.93519 7.83239 4.93803 7.35511C4.93519 6.9517 5.04457 6.60227 5.26616 6.30682C5.49059 6.00852 5.80167 5.77841 6.1994 5.61648C6.59996 5.4517 7.06161 5.36932 7.58434 5.36932C8.35139 5.36932 8.95508 5.53267 9.39542 5.85938C9.8386 6.18608 10.1127 6.62784 10.2179 7.18466ZM15.8024 9.24716V5.45455H17.345V12H15.8493V10.8366H15.7811C15.6333 11.2031 15.3904 11.5028 15.0524 11.7358C14.7172 11.9687 14.3038 12.0852 13.8123 12.0852C13.3833 12.0852 13.0041 11.9901 12.6745 11.7997C12.3478 11.6065 12.0922 11.3267 11.9075 10.9602C11.7228 10.5909 11.6305 10.1449 11.6305 9.62216V5.45455H13.1731V9.38352C13.1731 9.7983 13.2868 10.1278 13.514 10.3722C13.7413 10.6165 14.0396 10.7386 14.4089 10.7386C14.6362 10.7386 14.8564 10.6832 15.0694 10.5724C15.2825 10.4616 15.4572 10.2969 15.5936 10.0781C15.7328 9.85653 15.8024 9.57955 15.8024 9.24716ZM18.9313 12V5.45455H20.4057V6.56676H20.4824C20.6188 6.19176 20.8446 5.89915 21.16 5.68892C21.4753 5.47585 21.8517 5.36932 22.2892 5.36932C22.7324 5.36932 23.106 5.47727 23.41 5.69318C23.7168 5.90625 23.9327 6.19744 24.0577 6.56676H24.1259C24.2708 6.20312 24.5151 5.91335 24.8588 5.69744C25.2054 5.47869 25.6159 5.36932 26.0904 5.36932C26.6926 5.36932 27.1841 5.55966 27.5648 5.94034C27.9455 6.32102 28.1358 6.87642 28.1358 7.60653V12H26.589V7.84517C26.589 7.43892 26.481 7.14205 26.2651 6.95455C26.0492 6.7642 25.785 6.66903 25.4725 6.66903C25.1003 6.66903 24.8091 6.78551 24.5989 7.01847C24.3915 7.24858 24.2878 7.5483 24.2878 7.91761V12H22.775V7.78125C22.775 7.44318 22.6728 7.1733 22.4682 6.97159C22.2665 6.76989 22.0023 6.66903 21.6756 6.66903C21.454 6.66903 21.2523 6.72585 21.0705 6.83949C20.8887 6.95028 20.7438 7.10795 20.6358 7.3125C20.5279 7.5142 20.4739 7.75 20.4739 8.01989V12H18.9313ZM30.1099 7.83239V6.51562H35.7818V7.83239H30.1099ZM30.1099 10.5597V9.2429H35.7818V10.5597H30.1099ZM41.3077 3.27273V12H39.7267V4.81108H39.6756L37.6344 6.11506V4.66619L39.8034 3.27273H41.3077Z" fill="black"/>
</svg>
