<svg width="32" height="21" viewBox="0 0 32 21" fill="none" xmlns="http://www.w3.org/2000/svg">
<ellipse cx="16" cy="10.5" rx="16" ry="10.5" fill="#86BA80" fill-opacity="0.6"/>
<path d="M14.1184 14.1278C13.4792 14.1278 12.9252 13.9872 12.4565 13.706C11.9877 13.4247 11.6241 13.0312 11.3656 12.5256C11.1099 12.0199 10.9821 11.429 10.9821 10.7528C10.9821 10.0767 11.1099 9.48437 11.3656 8.97585C11.6241 8.46733 11.9877 8.07244 12.4565 7.79119C12.9252 7.50994 13.4792 7.36932 14.1184 7.36932C14.7576 7.36932 15.3116 7.50994 15.7804 7.79119C16.2491 8.07244 16.6113 8.46733 16.867 8.97585C17.1255 9.48437 17.2548 10.0767 17.2548 10.7528C17.2548 11.429 17.1255 12.0199 16.867 12.5256C16.6113 13.0312 16.2491 13.4247 15.7804 13.706C15.3116 13.9872 14.7576 14.1278 14.1184 14.1278ZM14.127 12.892C14.4735 12.892 14.7633 12.7969 14.9963 12.6065C15.2292 12.4134 15.4025 12.1548 15.5162 11.831C15.6326 11.5071 15.6909 11.1463 15.6909 10.7486C15.6909 10.348 15.6326 9.9858 15.5162 9.66193C15.4025 9.33523 15.2292 9.07528 14.9963 8.8821C14.7633 8.68892 14.4735 8.59233 14.127 8.59233C13.7718 8.59233 13.4764 8.68892 13.2406 8.8821C13.0076 9.07528 12.8329 9.33523 12.7164 9.66193C12.6028 9.9858 12.546 10.348 12.546 10.7486C12.546 11.1463 12.6028 11.5071 12.7164 11.831C12.8329 12.1548 13.0076 12.4134 13.2406 12.6065C13.4764 12.7969 13.7718 12.892 14.127 12.892ZM18.5641 14V7.45455H20.0598V8.54545H20.128C20.2473 8.16761 20.4519 7.87642 20.7417 7.67188C21.0343 7.46449 21.3681 7.3608 21.7431 7.3608C21.8283 7.3608 21.9235 7.36506 22.0286 7.37358C22.1365 7.37926 22.226 7.3892 22.2971 7.40341V8.82244C22.2317 8.79972 22.128 8.77983 21.986 8.76278C21.8468 8.7429 21.7118 8.73295 21.5811 8.73295C21.2999 8.73295 21.0471 8.79403 20.8226 8.91619C20.601 9.03551 20.4263 9.2017 20.2985 9.41477C20.1706 9.62784 20.1067 9.87358 20.1067 10.152V14H18.5641Z" fill="black"/>
</svg>
